<?xml version="1.0" encoding="UTF-8" standalone="no"?>
<!DOCTYPE svg PUBLIC "-//W3C//DTD SVG 1.1//EN" "http://www.w3.org/Graphics/SVG/1.1/DTD/svg11.dtd">
<svg version="1.1" xmlns="http://www.w3.org/2000/svg" xmlns:xlink="http://www.w3.org/1999/xlink" preserveAspectRatio="xMidYMid meet" viewBox="120.38658319160031 78.61476652282181 440.53644689650497 534.3105269670394" width="436.04" height="529.81"><defs><path d="M273.55 609.93C257.09 492.37 260.72 424.15 284.44 405.27C320.02 376.95 372.95 386.37 403.46 414.71C423.8 433.6 428.39 496.49 417.25 603.39C440.17 585.17 454.5 573.79 460.23 569.23C528.08 515.32 564.4 431 556.97 344.66C553.94 309.39 546.35 221.21 534.22 80.11C549.61 293.5 521.51 385.92 449.9 357.37C342.5 314.56 260.49 327.62 205.34 371.89C168.57 401.4 143.15 334.84 129.09 172.2C125.34 273.16 122.99 336.25 122.06 361.49C119.21 437.95 152.43 511.31 211.76 559.61C220 566.32 240.6 583.09 273.55 609.93Z" id="ctUB5IoKq"></path></defs><g><g><use xlink:href="#ctUB5IoKq" opacity="1" fill="#000000" fill-opacity="1"></use><g><use xlink:href="#ctUB5IoKq" opacity="1" fill-opacity="0" stroke="#ffffff" stroke-width="20" stroke-opacity="1"></use></g></g></g></svg>